<?xml version="1.0" encoding="UTF-8"?>
<svg id="Calque_1" xmlns="http://www.w3.org/2000/svg" version="1.1" viewBox="0 0 784.39 506.46">
  <!-- Generator: Adobe Illustrator 30.5.1, SVG Export Plug-In . SVG Version: 2.1.4 Build 3)  -->
  <defs>
    <style>
      .st0 {
        fill: #fff;
      }

      .st1 {
        fill: #00eabd;
      }
    </style>
  </defs>
  <path class="st1" d="M109.92,506.45l175.94-37.32,44.47-9.11,349.16-72.23,22.13-4.69,62.17-13.56c1.7-6.41,1.41-11.71,1.8-18.1l2.51-41.3c.25-4.15.87-8.2.42-12.04l-33.86-25.94,10.75-7.55,24.11-17.73,4.74-41.68,10.12-166.86L732.87,0l-109.39,25.43-312.24,70.94-14.75,3.16-143.1,32.96c-37.58,8.65-74.06,16.67-110.93,27.53l-18.89,4.72-6.07,40.77-8.47,58.48L0,326.9c9.17,7.1,17.45,13.13,25.51,20.97,10.33,10.05,20.91,19.55,31.53,28.3l-.45,11.08-7.45,49.4c-1.16,7.69-3.82,15-4.55,22.99l65.33,46.82h0Z"/>
  <path class="st0" d="M109.92,506.45l-65.33-46.82c.72-7.99,3.39-15.3,4.55-22.99l7.45-49.4.45-11.08c-10.63-8.75-21.2-18.25-31.53-28.3-8.06-7.84-16.34-13.88-25.51-20.97l9.03-62.92,8.47-58.48,6.07-40.77,18.89-4.72c36.86-10.85,73.35-18.87,110.93-27.53l143.1-32.96,14.75-3.16L623.49,25.43,732.87,0l51.52,38.34-10.12,166.86-4.74,41.68-24.11,17.73-10.75,7.55,33.86,25.94c.45,3.85-.17,7.9-.42,12.04l-2.51,41.3c-.39,6.39-.1,11.69-1.8,18.1l-62.17,13.56-22.13,4.69-349.16,72.23-44.47,9.11-175.94,37.32h-.01ZM681.71,40.52l-12.85,6.2-3.76,24.21,31.81-6.94c2.83-.62,6.54-5.03,6.82-7.89l2.09-21.37c.49-4.98-3.9-8.05-8.5-7.98-8,.13-15.16,2.9-22.53,5.99-3.93,1.65-6.19,3.84-5.57,9.03l13.13-3.93c3.46-1.03,6.3-1.2,10.68-.85l-2.57,20.48-11.52,3.03s2.77-19.98,2.77-19.98ZM635.35,109.98l3.19-22.17-33.1,6.7,3.26-24.71,34.31-7.46,3.41-23.5-59.61,13.59-16.76,118.13,59.82-12.67,3.36-24.29-35.17,6.76,3.46-22.98,33.82-7.39h0ZM492.56,185.84l69.58-14.32,5.61-38.06-40.14-30.92,2.39-15.67,22.4-4.09-14.21,13.7,13.13,9.33,21.35-19.12,5.69-33.26-70.24,15.47-6.79,46.43,38.55,28.49c2.14,1.58,3.68,5.36,2.13,7.26l-28.1,5.73,10.67-12.3-10.62-8.77-17.48,16.01-3.91,34.1h-.01ZM690.49,90.78l1.05-7.47-15.04,3.08.43-6.51,23.88-5.13.89-7.01-36.5,7.83-5.82,35.43,37.31-7.81.63-7.42-23.24,4.91.93-6.66,15.48-3.25h0ZM439.16,197.79l3.62-18.79,11.16,14.89,28.27-6.35-29.17-29.48c20.99-8.26,41.97-22.54,44.59-43.87,1.2-9.78-1.64-19.16-8.28-25.4-15.7-14.75-35.66-6.36-56.74-2.16l-3.75,23.26,29.92-5.43c5.01-.91,10.8,1.32,13.29,5.11,6.47,9.84-6.3,24.27-21.93,27.45l3.27-27.75-25.76,11.11-13.47,82.85,24.97-5.42v-.02ZM356.41,104.58l-11.43,73.24c-1.23,7.9-2.18,15.57-2.16,23.4.02,8.25,6.04,14.94,14.61,14.45,9.91-.56,19.42-3.16,29-5.39,13.28-3.09,21.99-12.27,23.79-26.3l14.73-94.79-24.23,4.77-8.17,52.72-4.39,32.65c-1.52,11.29-16.67,12.52-19.78,10.05-1.28-1.01-1.55-4.2-1.21-6.4l12.86-83.71-23.63,5.29v.02ZM693.42,145.85l1.07-12.46-22.08-8.83c-1.33-.53,1.21-5.13,2.6-5.38l8.76-1.58-6.05,5.28,7,1.99,10.24-6.65,1.52-11.26-37.12,7.87-1.81,15.01,25.37,9.57-15.65,3.66,4.85-4.27c-3.62-2.15-6.77-1.97-9.71.04l-6.63,4.52-1.14,10.88,38.8-8.37-.02-.02ZM287.42,207.81l-5.85-47.35c3.64-2.91,8.84-7.56,13.4-7.94,6.13-.51,11.6.92,15.54-4.67,8.11-11.51,15.11-23.63,20.23-37.13l-39.25,7.84c-5.54,1.11-9.88,4.85-12.27,9.9l-12.68,90.33c-1.13,8.07,6.15,14.6,13.35,13.62l16.4-2.23c-3.03-7.54-7.83-14-8.86-22.37h-.01ZM262.81,200.41l-23.32,5.35-2.4,12.52c-6.06,2.62-10.95,3.99-17.93,3.5,2.23-20.8,5.06-39.55,8.62-59.48.75-4.18,5.1-7.93,8.92-8.4l10.54-1.32-1.74,17.12,22.82-4.84,4.48-32.93c1.73-12.69-23.17-3.24-39.05.35l-15.19,3.44c-5.62,1.27-9.72,5.29-10.63,11.27l-6.06,39.81-6.98,52.76c-.83,6.3,5.9,10.94,11.42,9.78l23.2-4.86,18.84-4.27c4.98-1.13,9.64-4.98,10.38-10.3l4.09-29.48v-.02ZM309.51,226.28l14.28-4.19c5.13-1.51,8.8-8.84,9.58-14.43l8.22-58.97-6.42,4.48c-6.6,4.6-12.08,10.48-15.02,18.35-3.3,8.82-7.39,17.77-9.35,26.98s-.69,18.58-1.28,27.78h0ZM136.94,226.79l-.07,36.65,24.33-5.6,1.7-108.23-44.06,9.72-33.75,115.16,24.25-4.92,10.62-39.37,16.97-3.41h.01ZM687.43,246.27l-16.81-15.27,20.07-14.64,6.1-57.24-473.97,106.02-21.01,138.42,479.17-99.25,6.44-58.03h.01ZM82.51,275.12l2.87-21.92-32.88,6.45,13.66-89.72-23.7,5.21-16.77,113.2,56.82-13.23h0ZM79.31,383.77l-8.17,46.15,110.83-23.04,5.05-31-74.22,16.44c.05-4.7,2.45-7.39,5.85-9.89l61.58-45.34c5.41-3.98,7.88-7.94,8.97-14.37l7.28-42.72c.3-1.77-.89-5.7-2.08-6.84-4.54-4.36-19.68-1.12-30.68,1.34l-57.27,12.82c-5.91,2.91-10.84,8.04-11.93,14.65l-5.37,32.64,34.2-7.07,1.14-5.76c.94-14.56,16.03-15.22,32.72-16.87.86,16.1-2.04,19.35-12.79,27.43l-57.24,42.98c-2.59,2.01-7.28,5.01-7.89,8.45h.02Z"/>
  <path class="st1" d="M687.43,246.27l-6.44,58.03-479.17,99.25,21.01-138.42,473.97-106.02-6.1,57.24-20.07,14.64,16.81,15.27h-.01ZM662.12,292.81l5.26-37.59-43.33-31.9,2.41-16.21,24.28-4.44-15.14,14.2,13.81,9.35,21.02-19.21,4.35-33.38-69.05,15.81-6.35,46.41,40.78,30.18c2.57.47,3.27,6.76,1.13,7.2l-29.94,6.18,11.67-13.42-9.97-8.11-20.79,18.82-4.71,32.58,74.58-16.46h-.01ZM589.83,261.34l2.89-22.16-34.48,7.52,3.39-25.38,35.7-7.79,3.12-22.91-59.33,13.34-17.86,119.61,59.23-13.23,3.67-24.19-34.85,7.98,3.81-24.84,34.72-7.95h-.01ZM483.03,247.73l-25.3,10.32-13.25,83.61,52.62-11.66c11.89-2.64,19.69-10.54,22.83-22.65,3.88-21.59,7.06-43.1,9.58-65.19,2.12-18.61-18.47-30.09-32.13-27.18l-33.88,7.22-3.47,23.61,33.57-7.01c2.67-.56,7.55.95,9.1,2.7,1.4,1.57,2.82,6.16,2.43,8.6l-7.39,46.98c-.9,5.72-3.12,10.16-9.43,11.57l-15.5,3.46,10.21-64.38h.01ZM418.31,309.78l-3.67,38.44,25.51-5.63,10.94-116.77-49.11,10.81-41.51,123.9,26.85-6.11,13.31-40.9,17.69-3.74h0ZM346.66,363.91l17.07-97.74,24.59-5.82,7.43-22.46-76.8,17.3-3.63,22.68,22.75-4.96-16.37,96.28,24.97-5.29h-.01ZM224.98,390.98l74.59-16.33,6.06-37.34-43.03-31.6,3-16,24.31-5.3-14.91,15.4,12.94,8.54,21.6-19.59,4.81-32.77-70.44,16.13-6.9,46.14,41.31,29.32c1.63,1.58,1.92,5.56.46,7.11l-30.35,6.33,12.38-13.07-10.41-8.55-20.58,18.59-4.86,32.98h.02Z"/>
  <path class="st1" d="M79.31,383.77c.61-3.45,5.31-6.44,7.89-8.45l57.24-42.98c10.75-8.07,13.65-11.33,12.79-27.43-16.69,1.65-31.78,2.31-32.72,16.87l-1.14,5.76-34.2,7.07,5.37-32.64c1.09-6.6,6.02-11.74,11.93-14.65l57.27-12.82c11-2.46,26.13-5.7,30.68-1.34,1.19,1.14,2.38,5.07,2.08,6.84l-7.28,42.72c-1.1,6.43-3.57,10.39-8.97,14.37l-61.58,45.34c-3.4,2.5-5.8,5.19-5.85,9.89l74.22-16.44-5.05,31-110.83,23.04,8.17-46.15h-.02Z"/>
  <path class="st1" d="M492.56,185.84l3.91-34.1,17.48-16.01,10.62,8.77-10.67,12.3,28.1-5.73c1.55-1.9,0-5.68-2.13-7.26l-38.55-28.49,6.79-46.43,70.24-15.47-5.69,33.26-21.35,19.12-13.13-9.33,14.21-13.7-22.4,4.09-2.39,15.67,40.14,30.92-5.61,38.06-69.58,14.32h0Z"/>
  <path class="st1" d="M356.41,104.58l23.63-5.29-12.86,83.71c-.34,2.2-.07,5.39,1.21,6.4,3.11,2.47,18.26,1.24,19.78-10.05l4.39-32.65,8.17-52.72,24.23-4.77-14.73,94.79c-1.8,14.02-10.51,23.21-23.79,26.3-9.58,2.23-19.09,4.82-29,5.39-8.57.49-14.59-6.21-14.61-14.45s.93-15.5,2.16-23.4l11.43-73.24v-.02Z"/>
  <path class="st1" d="M439.16,197.79l-24.97,5.42,13.47-82.85,25.76-11.11-3.27,27.75c15.63-3.18,28.4-17.62,21.93-27.45-2.49-3.79-8.28-6.01-13.29-5.11l-29.92,5.43,3.75-23.26c21.08-4.2,41.04-12.59,56.74,2.16,6.64,6.24,9.48,15.62,8.28,25.4-2.62,21.33-23.6,35.61-44.59,43.87l29.17,29.48-28.27,6.35-11.16-14.89-3.62,18.79v.02Z"/>
  <path class="st1" d="M136.94,226.79l-16.97,3.41-10.62,39.37-24.25,4.92,33.75-115.16,44.06-9.72-1.7,108.23-24.33,5.6.07-36.65h-.01ZM138.09,204.89c.17-11.59.76-19.88-.19-30.31-4.25,11.64-6.42,20.52-9.6,32.29l9.8-1.97h0Z"/>
  <polygon class="st1" points="635.35 109.98 601.53 117.37 598.07 140.35 633.24 133.59 629.88 157.88 570.06 170.55 586.81 52.43 646.42 38.83 643.01 62.34 608.7 69.8 605.43 94.51 638.54 87.81 635.35 109.98"/>
  <path class="st1" d="M262.81,200.41l-4.09,29.48c-.74,5.32-5.4,9.17-10.38,10.3l-18.84,4.27-23.2,4.86c-5.52,1.16-12.26-3.48-11.42-9.78l6.98-52.76,6.06-39.81c.91-5.99,5.01-10,10.63-11.27l15.19-3.44c15.87-3.59,40.78-13.04,39.05-.35l-4.48,32.93-22.82,4.84,1.74-17.12-10.54,1.32c-3.82.48-8.17,4.23-8.92,8.4-3.56,19.92-6.39,38.68-8.62,59.48,6.98.49,11.87-.88,17.93-3.5l2.4-12.52,23.32-5.35v.02Z"/>
  <polygon class="st1" points="82.51 275.12 25.7 288.34 42.47 175.14 66.17 169.93 52.51 259.65 85.39 253.19 82.51 275.12"/>
  <path class="st1" d="M287.42,207.81c1.03,8.37,5.83,14.83,8.86,22.37l-16.4,2.23c-7.2.98-14.48-5.55-13.35-13.62l12.68-90.33c2.39-5.05,6.73-8.79,12.27-9.9l39.25-7.84c-5.12,13.49-12.12,25.62-20.23,37.13-3.94,5.59-9.4,4.17-15.54,4.67-4.56.38-9.76,5.03-13.4,7.94l5.85,47.35h.01Z"/>
  <path class="st1" d="M309.51,226.28c.6-9.2-.68-18.54,1.28-27.78s6.05-18.16,9.35-26.98c2.95-7.87,8.42-13.75,15.02-18.35l6.42-4.48-8.22,58.97c-.78,5.6-4.45,12.93-9.58,14.43l-14.28,4.19h0Z"/>
  <path class="st1" d="M693.42,145.85l-38.8,8.37,1.14-10.88,6.63-4.52c2.94-2,6.09-2.18,9.71-.04l-4.85,4.27,15.65-3.66-25.37-9.57,1.81-15.01,37.12-7.87-1.52,11.26-10.24,6.65-7-1.99,6.05-5.28-8.76,1.58c-1.39.25-3.93,4.85-2.6,5.38l22.08,8.83-1.07,12.46.02.02Z"/>
  <path class="st1" d="M681.71,40.52l-2.77,19.98,11.52-3.03,2.57-20.48c-4.38-.36-7.23-.19-10.68.85l-13.13,3.93c-.62-5.19,1.64-7.38,5.57-9.03,7.37-3.09,14.53-5.86,22.53-5.99,4.6-.07,8.99,3,8.5,7.98l-2.09,21.37c-.28,2.85-4,7.27-6.82,7.89l-31.81,6.94,3.76-24.21s12.85-6.2,12.85-6.2Z"/>
  <polygon class="st1" points="690.49 90.78 675 94.02 674.07 100.68 697.32 95.77 696.69 103.18 659.37 110.99 665.19 75.56 701.69 67.73 700.8 74.74 676.93 79.87 676.5 86.38 691.54 83.3 690.49 90.78"/>
  <path class="st0" d="M224.98,390.98l4.86-32.98,20.58-18.59,10.41,8.55-12.38,13.07,30.35-6.33c1.46-1.55,1.17-5.53-.46-7.11l-41.31-29.32,6.9-46.14,70.44-16.13-4.81,32.77-21.6,19.59-12.94-8.54,14.91-15.4-24.31,5.3-3,16,43.03,31.6-6.06,37.34-74.59,16.33h-.02Z"/>
  <path class="st0" d="M662.12,292.81l-74.58,16.46,4.71-32.58,20.79-18.82,9.97,8.11-11.67,13.42,29.94-6.18c2.14-.44,1.44-6.73-1.13-7.2l-40.78-30.18,6.35-46.41,69.05-15.81-4.35,33.38-21.02,19.21-13.81-9.35,15.14-14.2-24.28,4.44-2.41,16.21,43.33,31.9-5.26,37.59h.01Z"/>
  <path class="st0" d="M418.31,309.78l-17.69,3.74-13.31,40.9-26.85,6.11,41.51-123.9,49.11-10.81-10.94,116.77-25.51,5.63,3.67-38.44h0ZM421.62,286.85l3.66-31.09-7.04,2.05-9.67,32.39,13.06-3.34h0Z"/>
  <path class="st0" d="M483.03,247.73l-10.21,64.38,15.5-3.46c6.31-1.41,8.53-5.85,9.43-11.57l7.39-46.98c.38-2.44-1.03-7.03-2.43-8.6-1.56-1.75-6.44-3.26-9.1-2.7l-33.57,7.01,3.47-23.61,33.88-7.22c13.65-2.91,34.25,8.57,32.13,27.18-2.52,22.1-5.69,43.61-9.58,65.19-3.14,12.11-10.94,20.02-22.83,22.65l-52.62,11.66,13.25-83.61,25.3-10.32h-.01Z"/>
  <polygon class="st0" points="589.83 261.34 555.12 269.29 551.3 294.13 586.16 286.16 582.49 310.35 523.26 323.58 541.12 203.97 600.45 190.63 597.33 213.54 561.63 221.33 558.24 246.71 592.72 239.19 589.83 261.34"/>
  <polygon class="st0" points="346.66 363.91 321.69 369.2 338.06 272.92 315.31 277.88 318.94 255.19 395.74 237.89 388.31 260.35 363.72 266.17 346.66 363.91"/>
  <path class="st0" d="M138.09,204.89l-9.8,1.97c3.18-11.77,5.35-20.65,9.6-32.29.95,10.43.37,18.72.19,30.31h0Z"/>
  <polygon class="st1" points="421.62 286.85 408.57 290.2 418.24 257.81 425.28 255.76 421.62 286.85"/>
</svg>