<?xml version="1.0" encoding="UTF-8"?>
<svg id="Calque_1" xmlns="http://www.w3.org/2000/svg" version="1.1" viewBox="0 0 85.4 91.53">
  <!-- Generator: Adobe Illustrator 30.5.1, SVG Export Plug-In . SVG Version: 2.1.4 Build 3)  -->
  <path d="M33.14,62.05c4.73,2.38,9.46,4.75,14.19,7.13,1.67.84,2.86,2.42,3.19,4.27.55,3.04,1.1,6.08,1.65,9.11-9.88-4.96-19.76-9.93-29.64-14.9-1.67-.84-2.85-2.41-3.19-4.24-.61-3.28,1.13-6.55,4.19-7.88,4.13-1.79,8.26-3.58,12.39-5.37l-12.9-15.57c-3.07,2.27-6.14,4.54-9.21,6.8-1.67,1.24-4.04.79-5.15-.97-2.77-4.38-5.53-8.76-8.3-13.14-.7-1.11-.37-2.59.74-3.29.74-.47,1.48-.93,2.22-1.4,1.11-.7,2.59-.37,3.29.74,2.03,3.22,4.07,6.44,6.11,9.67,1.85-1.37,3.71-2.74,5.56-4.11,6.72-4.97,14.04-8.83,21.94-11.57,3.26-1.13,6.51-2.26,9.77-3.39,1.02-.35,1.97-.43,3.03-.23,5.85,1.06,11.69,2.13,17.54,3.19,1.3.24,2.16,1.48,1.92,2.78-.16.86-.31,1.72-.47,2.58-.23,1.3-1.48,2.16-2.77,1.92-5.72-1.04-11.44-2.08-17.17-3.12-3.09,1.07-6.17,2.15-9.26,3.22l9.6,15.7,12.29,26.42c6.06,4.27,12.12,8.54,18.19,12.81,2.12,1.49,3.03,4.19,2.26,6.66-.59,1.88-1.18,3.77-1.77,5.65l-23.84-16.8c-1.79-1.26-3.02-2.74-3.95-4.72l-6.84-14.71-15.59,6.75Z"/>
  <circle cx="22.99" cy="10.36" r="10.36"/>
</svg>