<svg xmlns="http://www.w3.org/2000/svg" style="display:none">
  <!-- Sprite of 4 female running poses, 20×40 viewBox each, slightly different proportions -->
  <symbol id="rf0" viewBox="0 0 20 40" overflow="visible">
    <circle cx="10" cy="4" r="4" fill="currentColor"/>
    <path d="M10 8 L8 18 L5 33 H9 L12 22 L16 32 H20 L14 18 L12 8Z" fill="currentColor"/>
    <path d="M9 12 L3 16 L4 18 L10 14Z" fill="currentColor"/>
    <path d="M11 11 L17 8 L16 6 L10 9Z" fill="currentColor"/>
  </symbol>
  <symbol id="rf1" viewBox="0 0 20 40" overflow="visible">
    <circle cx="10" cy="4" r="4" fill="currentColor"/>
    <path d="M10 8 L9 18 L5 32 H9 L11 22 L15 31 H19 L13 18 L12 8Z" fill="currentColor"/>
    <path d="M9 12 L2 15 L3 17 L10 14Z" fill="currentColor"/>
    <path d="M11 12 L17 15 L16 17 L10 13Z" fill="currentColor"/>
  </symbol>
  <symbol id="rf2" viewBox="0 0 20 40" overflow="visible">
    <circle cx="11" cy="4" r="4" fill="currentColor"/>
    <path d="M11 8 L9 17 L6 32 H10 L13 22 L17 30 H20 L15 17 L13 8Z" fill="currentColor"/>
    <path d="M10 11 L3 9 L2 11 L10 13Z" fill="currentColor"/>
    <path d="M12 10 L18 13 L17 15 L11 12Z" fill="currentColor"/>
  </symbol>
  <symbol id="rf3" viewBox="0 0 20 40" overflow="visible">
    <circle cx="10" cy="4" r="4" fill="currentColor"/>
    <path d="M10 8 L8 18 L6 33 H10 L12 22 L15 31 H19 L14 18 L12 8Z" fill="currentColor"/>
    <path d="M9 11 L4 6 L3 8 L9 13Z" fill="currentColor"/>
    <path d="M11 10 L17 6 L16 4 L10 8Z" fill="currentColor"/>
  </symbol>
</svg>
