<?xml version="1.0" encoding="UTF-8"?>
<svg id="Calque_1" xmlns="http://www.w3.org/2000/svg" version="1.1" viewBox="0 0 401.76 124.9">
  <!-- Generator: Adobe Illustrator 30.5.1, SVG Export Plug-In . SVG Version: 2.1.4 Build 3)  -->
  <path d="M364.32,38.57c-.25,1.28-.58,2.35-.64,3.44-.11,2.03-.82,3.92-1.16,5.89-.2,1.14-.34,2.29-.52,3.43-.46,2.85-.32,5.8-1.44,8.55-.27.66-.28,1.44-.41,2.18.45.71,1.2,1.02,1.9,1.36,2.99,1.45,5.83,3.18,8.58,5.03,2.94,1.98,5.62,4.32,8.05,6.92,1.08,1.16,2.13,2.36,3.2,3.53.57.62.83,1.35.77,2.18-.07,1-.17,2-.28,3-.22,2.09.05,4.13.65,6.12.63,2.07,1.03,4.18,1.26,6.34.25,2.36.52,4.72.95,7.05.4,2.17.88,4.34,1.86,6.35.46.95.98,1.77,2.06,2.23.85.36,1.53,1.1,2.29,1.67.29.22.6.42.91.63,1.45.97,3.02,1.44,4.79,1.26,1-.1,2.01-.07,3.01-.04,1.37.03,1.98,1.02,1.37,2.27-.61,1.24-1.68,2.05-2.9,2.59-1.66.73-3.45,1.06-5.23.79-2.59-.39-5.11-.24-7.67.26-1.33.26-2.73.14-4.1.14-.58,0-.97-.4-1.16-.94-.14-.4-.33-.84-.27-1.22.25-1.56.04-3.2.65-4.69.29-.69.34-1.37.18-2.02-.72-2.97-1.48-5.92-2.27-8.87-.5-1.87-1.5-3.49-2.69-4.98-1.72-2.15-2.41-4.66-2.58-7.34-.12-1.86-.08-3.72-.1-5.59-.02-2.77-.01-2.85-2.7-3.63-2.46-.72-4.95-1.31-7.44-1.91-3.72-.89-7.16-2.39-10.32-4.69-.88.73-1.41,1.78-1.98,2.76-2.11,3.58-4.52,6.91-7.64,9.68-.83.74-1.54,1.57-2.05,2.6-.76,1.55-1.94,2.52-3.74,2.83-1.64.29-3.19.99-4.67,1.81-3.64,2.02-7.54,3.46-11.32,5.16-3.59,1.61-7.24,3.16-10.28,5.79-.63.54-1.4.93-2.13,1.4.92,1.24.36,2.26-.62,3.28-.31-.09-.64-.19-.96-.28-.12.05-.24.07-.31.13-1.53,1.27-2.5,2.99-3.58,4.62-.27.4-.28,1-.34,1.52-.08.74-.03,1.49-.16,2.22-.12.74-.41,1.43-1.27,1.65-.77.2-1.15-.39-1.59-.82-1.07-1.04-1.59-2.36-1.73-3.81-.16-1.7-.07-3.4.4-5.04.6-2.1.87-4.22.82-6.41-.02-1.1.15-2.22.4-3.29.28-1.24.88-1.71,2.14-1.65,1.46.07,2.94.2,4.37.51.85.18,1.53.08,2.26-.28,2.33-1.13,4.53-2.48,6.58-4.06.63-.48,1.24-.99,1.88-1.45,1.16-.83,2.24-1.72,3.15-2.86,1.93-2.42,4.62-3.6,7.55-4.27,1.12-.26,2.25-.48,3.39-.67,1.02-.16,1.78-.65,2.15-1.63.47-1.23.97-2.45,1.35-3.71,1.3-4.3,2.96-8.46,4.93-12.48.55-1.12.87-2.23.81-3.5-.19-3.78,1.06-7.05,3.51-9.9,1.47-1.7,2.08-3.75,2.22-5.97.05-.74.33-1.49.23-2.19-.39-2.68.02-5.42-.6-8.07-.12-.51-.32-1-.51-1.49-.74-1.86-1.48-3.71-2.26-5.65-2.4.96-4.8,2.18-7.64,2.25-.05,3.48-.32,6.91,1.49,10.08.62,1.09,1.04,2.31,1.45,3.5.34.97.86,1.78,1.53,2.55.58.67,1.05,1.45,1.57,2.18.34.48.41,1.01.1,1.49-.51.79-1.07,1.55-1.65,2.29-.11.14-.4.26-.56.21-1.09-.34-2.25-.08-3.33-.37-.71-.19-1.32-.6-1.66-1.35-.49-1.09-.77-2.2-.42-3.38.39-1.32.11-2.5-.63-3.61-.78-1.19-1.6-2.37-2.32-3.6-1.17-2.01-2.06-4.14-2.7-6.39-.36-1.26-.81-2.5-1.21-3.76-.41-1.28-.3-1.82.73-2.63.78-.62,1.63-1.16,2.48-1.7,1.47-.93,2.93-1.88,4.45-2.71,1.24-.67,2.55-1.23,3.87-1.74.66-.25,1.28-.5,1.75-1.02,1.76-1.99,4.05-2.95,6.57-3.49.5-.11,1-.3,1.44-.56.68-.4,1.27-.95,1.95-1.35.71-.41,1.04-1.04,1.23-1.76.44-1.69.08-3.24-1.03-4.58-.72-.87-1.29-1.82-1.58-2.9-.45-1.68-.89-3.38-.27-5.13.05-.15.02-.35.11-.46,1.71-2.14,3.33-4.4,6.49-4.39,1.21,0,2.4-.1,3.61.26.89.26,1.88.16,2.79.39,1.57.4,1.96,1.17,1.45,2.67-.22.66-.15,1.22.08,1.84.2.54.48,1.14.41,1.67-.19,1.38.45,2.34,1.32,3.24.41.43.85.84.57,1.58-.36.2-.77.43-1.1.62-.15,1.45-.29,2.8-.44,4.15-.09.78-.8,1.33-1.84,1.43-.37.03-.74,0-1.11.01-.31,0-.63.04-1.01.06-.36,1.1-.47,2.34-.03,3.25.52,1.08,1.24,2.25,2.49,2.79,2.59,1.12,3.99,3.22,4.62,5.87.26,1.09.71,1.97,1.51,2.72,1.4,1.32,2.57,2.81,3.09,4.75,2.72-2,4.36-4.68,5.29-7.85.27-.93.4-1.76-.11-2.73-.81-1.55-.88-2.99-.75-5.73,1.08-.58,1.46-.42,1.56.64.05.55-.14,1.13.26,1.94.15-.45.26-.66.29-.87.04-.37,0-.75.05-1.12.16-1.07.85-1.44,1.91-1.11,1.25.39,2.34,1.07,3.42,1.77.41.27.66.8.87,1.06-.48,2.73-1.77,4.93-3.1,7.07-.94,1.52-1.49,3.17-1.77,4.87-.5,3.04-1.61,5.78-3.4,8.26-.43.6-.8,1.24-1.21,1.86-1.07,1.62-1.9,1.43-3,.64-1.16-.82-2.35-1.63-3.38-2.6-1.2-1.11-2.24-2.39-3.35-3.6-.35-.38-.71-.75-1.19-1.27Z"/>
  <path d="M78.54,114.66c.81,2.13,2.04,3.82,3.5,5.39.69.74,1.47,1.16,2.42,1.37.36.08.71.19,1.05.32.52.2.91.54.95,1.15.05.67-.32,1.16-.89,1.37-.78.29-1.6.59-2.41.62-3.02.11-5.82-.64-8.28-2.5-.75-.57-1.52-1.14-2.32-1.64-.43-.27-.95-.41-1.43-.61-1.06-.44-2.17-.8-3.18-1.34-.87-.47-1.68-1.1-2.09-2.25.22-.35.45-.83.78-1.23,1.15-1.38,1.98-2.98,3.05-4.42.78-1.06,1.15-2.48,1.48-3.8.51-2.04.85-4.12,1.09-6.22.26-2.29.22-4.56.21-6.83,0-1.69.37-3.26,1.08-4.74.73-1.52,1.58-2.99,2.37-4.48.15-.28.26-.57.38-.85-.74-1.27-2.05-1.27-3.2-1.46-1.4-.23-2.83-.22-4.24-.4-1.09-.14-2.17-.36-3.23-.65-2.23-.61-4.42-1.3-6.5-2.34-1.12-.56-2.28-1.03-3.53-1.6-.52.9-1.03,1.69-1.44,2.53-1.48,3-3.18,5.85-5.34,8.4-.24.28-.48.58-.76.81-1.77,1.51-3.01,3.41-4.01,5.47-.65,1.35-1.65,2.06-3.06,2.49-2.4.74-4.75,1.63-7.11,2.49-3.65,1.33-7.42,2.21-11.16,3.19-2.43.63-4.85,1.33-7.16,2.34-1.01.44-1.96,1.02-2.91,1.59-.23.14-.5.5-.48.74.05.96-.62,1.34-1.29,1.6-1.72.67-2.99,1.95-4.33,3.13-1.17,1.02-1.74,2.33-2.01,3.85-.13.76-.43,1.53-.82,2.19-.67,1.12-1.83,1.14-2.55.05-.51-.78-.96-1.62-1.08-2.61-.19-1.59-.04-3.13.31-4.68.86-3.74,1.69-7.48,2.55-11.22.25-1.1.3-1.1,1.34-1.15,1.55-.07,3.03.4,4.45.87,1.41.47,2.75.56,4.15.12,2.61-.81,5.22-1.62,7.5-3.2,1.17-.81,2.31-1.68,3.39-2.61,1.82-1.56,4-2.29,6.26-2.81,1.27-.29,2.58-.44,3.86-.69,1.34-.26,2.26-1.05,2.72-2.36.68-1.94,1.35-3.88,2.04-5.81,1.09-3.08,2.19-6.15,3.31-9.22.31-.86.5-1.68.07-2.59-.35-.72-.27-1.48-.11-2.3.43-2.19,1.47-4.05,2.59-5.91.84-1.4,1.68-2.81,2.52-4.22-.7-1.32-.6-2.62.04-3.94,1.02-2.11,1.26-4.38.97-6.67-.18-1.45-.55-2.89-.95-4.31-.42-1.49-.66-2.99-.64-4.54,0-.56-.15-1.13-.24-1.77-1.75-.01-3.23.86-4.83.93-1.57.07-3.11.28-4.73.58,0,3.27-.16,6.41.05,9.53.16,2.3,1.03,4.51,1.88,6.67.28.72.94,1.13,1.6,1.46,1.2.59,2.1,1.39,2.22,2.85.03.35.3.67.42,1.02.23.66.09,1.11-.54,1.2-.58.08-.93.38-1.35.7-.3.23-.78.23-1.18.32-.76.17-1.52.46-2.28.46-.87,0-1.74-.21-2.18-1.23-.4-.92-.95-1.8-.86-2.84.17-1.98-.52-3.75-1.22-5.51-1.21-3.03-2.37-6.08-3.03-9.29-.3-1.44-.55-2.89-.83-4.34-.1-.52-.16-1.06-.36-1.53-.45-1.01-.07-1.72.67-2.37,3.74-3.3,8.03-5.53,12.78-6.96.98-.3,1.9-.88,2.8-1.4,1.32-.77,2.59-1.57,4.16-1.82.69-.11,1.31-.27,1.99-.01.6.23,1.09.04,1.58-.41.45-.43.98-.86,1.55-1.05.89-.29,1.07-.95,1.15-1.7.11-1.02-.16-2-.52-2.93-.21-.54-.42-1.12-.78-1.55-1.62-1.94-1.43-4.09-.85-6.31.11-.41.21-.81.32-1.22.32-1.22,1.2-1.99,2.22-2.56.81-.45,1.7-.76,2.59-1.02.9-.26,1.84-.42,2.77-.57,1.61-.26,3.16.11,4.62.7,1.28.51,1.72,1.45,1.4,2.78-.19.8-.17,1.52.22,2.25.36.66.53,1.34.36,2.14-.09.4.1.91.29,1.31.25.52.68.95.95,1.46.24.44.36.94.55,1.45-.54.31-.94.54-1.33.76.03.87.32,1.69-.22,2.49-.18.26-.12.71-.14,1.07-.05,1.12-.47,1.59-1.61,1.74-.57.07-1.14.15-1.71.22-.76.08-1.07.58-1.15,1.28-.02.21-.02.43-.02.64,0,.53,0,1.05,0,1.63.33.19.64.38.96.54,1.37.69,2.1,1.87,2.53,3.3.29.95.64,1.89.88,2.85.18.71.33,1.45.34,2.18,0,.89.24,1.66.69,2.4.76,1.24,1.51,2.5,2.33,3.86.98-.97,2.11-1.82,2.74-3.15.54-1.15,1.06-2.3,1.61-3.44.27-.57.27-1.13-.03-1.66-1.27-2.2-.92-4.6-.92-6.95,1.31-.12,1.48.08,1.68,1.85.28-.5.54-1.11.94-1.61.18-.23.74-.41.96-.3,1.59.85,3.33,1.5,4.44,3.06.06.08.1.18.18.34-.77,1.9-1.38,3.9-2.69,5.64-.7.93-1.08,2.18-1.34,3.35-.84,3.71-2.23,7.14-4.59,10.15-.36.45-.58,1.01-.9,1.49-.7,1.05-1.02,1.11-2.22.8-2.01-.51-3.39-1.86-4.65-3.38-.12-.15-.23-.31-.51-.7-.41,2.46-1.7,4.38-1.97,6.63-.05.37-.12.73-.12,1.1.02,1.57-.35,3.04-1.15,4.39-.5.85-.66,1.71-.5,2.7.11.66.38,1.09.94,1.35.48.22.96.44,1.47.55,3.16.7,6.06,2,8.78,3.77,2.12,1.38,4.31,2.64,6.49,3.92,1.31.77,2.33,1.75,3.09,3.09.49.86,1.19,1.61,1.87,2.35,1.23,1.33,1.89,2.78,1.25,4.62-.23.64-.33,1.34-.62,1.95-1.51,3.14-2.71,6.39-3.72,9.73-1.06,3.53-2.4,6.97-3.55,10.47-.72,2.22-1.15,4.5-1.03,6.86.01.26.03.53.1.78.04.14.17.26.31.45.51-.1,1.05-.21,1.64-.32.44.99-.4,1.33-.77,1.9Z"/>
  <path d="M255.45,14.17c-.32,1.45-.59,2.72-.89,3.98-.15.64-.65.95-1.26,1.02-.52.06-1.06,0-1.58.06-.78.09-1.48.4-1.61,1.26-.13.83-.14,1.69-.14,2.53,0,.22.23.46.41.64.41.42.85.79,1.27,1.2,1.4,1.36,2.11,3.06,2.11,4.97,0,1.63.33,3.1,1.01,4.58.56,1.22.81,2.58,1.22,3.95,1.98-.85,3.78-2.08,5.19-3.85.39-.49.68-1.08,1.08-1.56.37-.45.47-.91.42-1.47-.05-.69-.02-1.38-.04-2.07-.03-1.01.34-1.88.96-2.63.42-.52.86-1.36,1.59-1.12.84.27,1.91.03,2.5,1.07.37.66.93,1.23,1.49,1.74.52.47.56,1.12.75,1.69.09.28-.06.76-.26,1-1.05,1.25-2,2.61-3.4,3.53-.33.22-.58.61-.8.96-1.07,1.7-2.14,3.39-3.16,5.12-1.26,2.14-2.93,3.89-4.95,5.29-.59.41-1.3.69-1.98.92-.91.31-1.75.14-2.4-.64-.17-.2-.34-.41-.62-.73-.5,1.07-.76,2.06-.8,3.09-.04.85-.03,1.7-.02,2.55.02,2.61-.33,5.15-1.22,7.62-.23.64-.37,1.32-.57,2.05,1.07.96,2.4,1.59,3.67,2.31,3.67,2.08,7.22,4.37,10.54,6.98,2.63,2.06,4.97,4.44,7.11,7.03.86,1.04,1.06,2.15.63,3.4-.17.5-.25,1.04-.5,1.49-1.1,1.96-1.52,4.12-2.03,6.28-.67,2.81-1.65,5.54-2.47,8.32-.49,1.66-1.08,3.32-1.34,5.02-.22,1.45-.05,2.96-.05,4.44,1.78.52,1.67,1.77,1.58,3.38,1.09.99,2.26,2.05,3.43,3.11.12.11.25.2.35.32.97,1.17,2.15,2,3.63,2.4.25.07.49.21.7.36.98.67.92,1.67-.16,2.23-.46.24-.97.48-1.48.5-1.94.1-3.9.3-5.77-.49-.77-.33-1.58-.56-2.36-.87-1.81-.74-3.71-1.09-5.61-1.48-1.12-.23-2.22-.62-3.28-1.07-1.13-.49-1.39-1.06-.98-2.26.63-1.83,1.08-3.73,2.16-5.4.52-.81.76-1.84.99-2.81.53-2.26.92-4.55,1.01-6.88.06-1.37.23-2.75.22-4.12,0-1.32-.19-2.64-.25-3.96-.1-2.41.67-4.57,1.92-6.59.25-.4.48-.81.69-1.17-.15-.7-.71-.85-1.14-1.12-1.95-1.22-4.12-1.87-6.34-2.26-3.65-.64-7.12-1.75-10.36-3.55-.41-.23-.84-.41-1.39-.67-1.29,1.93-2.63,3.82-3.85,5.78-1.66,2.67-3.47,5.18-6.03,7.08-.97.72-1.77,1.63-2.38,2.73-.89,1.6-2.17,2.7-3.95,3.44-2.85,1.19-5.59,2.68-8.33,4.14-2.42,1.28-4.79,2.66-7.15,4.04-2.23,1.3-4.37,2.75-6.27,4.54-.81.76-1.15,1.63-1.23,2.63-.07.95-.44,1.59-1.26,2.05-.29.16-.55.46-.7.77-.27.57-.41,1.2-.67,1.77-.85,1.88-1.17,3.83-.92,5.88.02.16.01.32,0,.48-.02,1.35-.52,1.64-1.8,1.1-1.22-.52-2.09-1.42-2.75-2.53-.96-1.62-1.53-3.37-1.47-5.27.07-2.19-.23-4.32-.86-6.41-.18-.6-.28-1.23-.38-1.86-.22-1.43.42-2.3,1.86-2.54,1.19-.2,2.38-.38,3.57-.56.16-.02.34-.06.47,0,1.12.55,1.97-.1,2.72-.72,1.91-1.59,3.77-3.24,5.61-4.91,1.41-1.28,2.95-2.47,4.13-3.94,1.79-2.22,4.13-3.35,6.71-4.2.8-.26,1.6-.51,2.4-.76,1.7-.52,2.75-1.7,3.27-3.36,1.08-3.43,2.37-6.77,4.11-9.92.64-1.16,1.26-2.32,1.92-3.47.88-1.53,1.1-3.19.91-4.91-.25-2.3.42-4.35,1.6-6.29.71-1.17,1.45-2.33,2.08-3.54.54-1.03.85-2.15.85-3.34,0-.85-.23-1.58-.87-2.13-.91-.8-1.83-1.6-2.8-2.31-2-1.47-4.07-2.83-6.04-4.34-1.08-.83-2.05-1.83-3.01-2.81-.89-.91-1.68-1.9-2.54-2.84-1.29-1.41-1.37-2.68-.09-4.07,2.48-2.71,5.26-5.1,8.57-6.69,1.65-.79,3.07-1.71,4.31-3.06,1.26-1.38,3.03-1.98,4.85-1.95,1.76.04,2.97-.96,4.25-1.82.74-.5.85-1.42.95-2.27.18-1.49-.28-2.85-1.06-4.07-.67-1.05-1.11-2.14-1.31-3.36-.65-4.1,1.25-6.77,4.99-7.67,2.45-.59,4.78,0,7.08.75.51.17.97.63,1.35,1.05.41.45.42,1.03.26,1.65-.08.3.12.69.25,1.02.3.79.66,1.56.49,2.45-.1.5.08.92.41,1.32.41.49.79.99,1.14,1.53.61.95.52,1.28-.44,1.93-.13.09-.27.15-.37.2ZM234.83,44.82c.26-1.76-.95-9.91-1.69-11.53-.85.4-1.72.78-2.56,1.2-.82.41-1.91.06-2.66.97.48,1.22.86,2.49,1.46,3.65,1.22,2.36,3.47,3.78,5.44,5.71Z"/>
  <path d="M152.11,19.57c-.87,2.14-.76,3.3.78,4.59,2.02,1.7,2.97,3.92,3.6,6.36.1.4.13.84.13,1.26,0,1.01-.07,2.02-.02,3.03.11,2.42.28,4.84.43,7.37,2.54-.04,5.1.27,7.63-.5,1.05-.32,1.76-.77,2.09-1.87.19-.65.51-1.3.93-1.82.38-.47.96-.8,1.49-1.12.18-.11.53-.07.74.03,1.25.61,2.19,1.51,2.57,2.91.16.6.3,1.22.53,1.8.24.64,0,1.1-.52,1.31-1.41.54-2.67,1.44-4.27,1.51-.68.03-1.39.44-2.01.82-3.32,2.01-6.88,3.34-10.7,3.97-.41.07-.81.2-1.22.3-.48,1.15-.99,2.25-1.4,3.38-.78,2.16-1.11,4.39-1.03,6.69.05,1.36.56,2.4,1.66,3.23,3.58,2.72,7.04,5.6,10.06,8.96,1.49,1.65,2.89,3.36,4.06,5.28.52.85,1.16,1.63,1.77,2.43,1.1,1.44,1.69,2.89,1.3,4.84-.48,2.35-.04,4.72.67,7.04.73,2.36,1.11,4.81,1.47,7.26.46,3.18.99,6.34,2.2,9.35.6,1.48,1.47,2.73,2.84,3.51,1.82,1.04,3.71,1.97,5.6,2.9,1.1.55,2.29.74,3.52.66.41-.03.85,0,1.24.13,1.19.38,1.47,1.43.63,2.34-.28.3-.64.55-1,.76-1.35.76-2.81,1.19-4.35,1.22-1.31.02-2.61,0-3.93-.25-1.51-.29-3.03.1-4.53.38-1.34.25-2.7.38-4.06.48-.45.03-.92-.15-1.37-.29-.45-.14-.67-.49-.66-.97,0-.16-.02-.32,0-.48.26-1.72.13-3.51.76-5.15.38-.97,0-1.83-.2-2.63-.93-3.51-2.01-6.99-3.83-10.17-.39-.68-.88-1.32-1.34-1.95-1.22-1.66-1.8-3.58-2.02-5.59-.2-1.84-.24-3.7-.38-5.55-.06-.84-.13-1.69-.31-2.51-.08-.37-.39-.77-.71-1-.72-.51-1.48-1-2.29-1.37-2.05-.94-4.17-1.73-6.21-2.71-1.98-.96-3.9-2.07-5.95-3.17-.3.54-.69,1.2-1.02,1.88-1.75,3.56-3.69,7.02-5.98,10.26-1.04,1.46-2.19,2.84-3.3,4.25-.74.94-1.76,1.28-2.91,1.33-2.71.11-5.33-.37-7.94-1.04-3.11-.8-5.98-2.26-8.99-3.3-2.97-1.03-5.94-2.09-9.14-2.14-.2,0-.4-.1-.8-.2-.16.21-.36.53-.62.79-.57.57-1.28.72-2.01.44-1.34-.53-2.67-.44-4.02-.05-.6.17-1.24.22-1.84.39-1.77.5-3.31,1.33-4.27,3.02-.23.41-.55.79-.89,1.12-.32.31-.64.72-1.22.49-.59-.24-.94-.58-.99-1.28-.2-2.55.46-4.83,2.01-6.83.51-.66,1.2-1.19,1.73-1.83.6-.73,1.15-1.51,1.66-2.31.79-1.25,1.49-2.55,2.29-3.79.65-1.02.69-.99,2.06-1.7.89.32,1.55,1.01,2.22,1.68.94.95,1.92,1.79,3.24,2.19.37.11.79.41.98.75.52.92,1.37,1.27,2.3,1.48,1.07.24,2.15.52,3.23.57,1.95.09,3.93.18,5.86-.03,1.81-.2,3.53.07,5.29.34,1.75.27,3.31.97,4.84,1.8.5.27,1.01.52,1.55.79.9-1.03.91-2.29,1.06-3.46.5-3.82,1.03-7.63,2.67-11.17.33-.71.52-1.49.78-2.24-.29-.78-.65-1.55-.87-2.36-.67-2.46-.15-4.82.84-7.08.57-1.31,1.3-2.54,1.91-3.83.59-1.23.26-3.1-.72-4.08-.37-.37-.81-.68-1.25-.95-1.35-.82-2.71-1.63-4.08-2.42-2.07-1.2-3.85-2.75-5.48-4.49-.61-.65-1.3-1.25-1.99-1.81-1.11-.91-1.44-2.27-.47-3.68,1.98-2.9,4.27-5.53,6.89-7.87.99-.88,2-1.74,2.89-2.71,1.61-1.76,3.43-3.05,5.82-3.57.98-.21,1.86-.95,2.73-1.52.7-.46,1.32-1.05,2.01-1.54,1.27-.89,1.93-2.52,1.42-4-.35-1.04-.87-2.03-1.42-2.98-.84-1.44-1.41-2.92-1.52-4.61-.16-2.59,1.11-4.43,3.16-5.65,2.98-1.76,6.09-1.69,9.15-.07.65.34,1,.77,1.05,1.59.05.76.49,1.48.74,2.23.21.63.52,1.2.27,1.96-.12.37.29.97.56,1.39.4.62.93,1.16,1.34,1.77.4.59.3,1.07-.38,1.22-.84.18-.84.63-.88,1.32-.06,1.03-.53,2.01-.47,3.09.03.56-.5.96-1.18,1.08-.77.13-1.54.25-2.33.38ZM136.21,35.98c-1.99,1.21-3.99,1.85-5.69,3.04,1.75,3.99,4.29,6.92,7.2,8.31.24-1.11.3-2.18.02-3.26-.18-.71-.35-1.43-.48-2.15-.35-1.91-.67-3.81-1.05-5.94Z"/>
</svg>