<?xml version="1.0" encoding="UTF-8"?>
<svg id="Calque_1" xmlns="http://www.w3.org/2000/svg" version="1.1" viewBox="0 0 465.09 124.46">
  <!-- Generator: Adobe Illustrator 30.5.1, SVG Export Plug-In . SVG Version: 2.1.4 Build 3)  -->
  <path d="M56.77,50.42c-.18-.04-.33-.11-.47-.09-1.8.25-2.76-.69-3.28-2.29-.13-.4-.32-.78-.44-1.18-.3-.98-.82-1.78-1.51-2.55-2.05-2.28-4.12-4.56-5.99-6.99-1.54-2-2.83-4.2-4.19-6.34-.5-.78-.52-2.02.51-2.68,1.5-.97,2.99-1.97,4.55-2.84,1.97-1.11,4.09-1.89,6.24-2.6,1.04-.34,2.05-.79,3.03-1.3,1.73-.9,3.47-1.72,5.44-1.95,1.39-.16,2.55-.96,3.69-1.67,1.29-.81,1.42-3.07.42-4.24-.27-.32-.52-.67-.79-.99-.84-1.03-1.24-2.2-1.16-3.53.03-.52,0-1.04-.25-1.6-.12.6-.32,1.2-.34,1.8-.05,1.12.05,2.24,0,3.35-.06,1.14-.4,2.21-1.35,2.93-.97.73-1.99,1.39-3.41,1,2.43-.53,3.2-1.2,3.46-3.12-1.01,1.77-2.41,2.42-4.23,2.3-.61-.04-1.24.17-1.86.21-.57.04-1.15.04-1.72-.01-.51-.05-1.02-.21-1.6-.34-.07-.24-.15-.52-.27-.9-.66.1-1.31.19-1.99.29.84-1.47,2.29-1.46,3.68-1.73-.65-.14-1.31-.41-1.95-.38-.84.03-1.39-.31-1.91-.9-.81-.92-1.78-1.65-2.98-2.06.94-.55.97-.62,1.92-.21,1.17.51,2.13.32,3.03-.5-.82,0-1.64.09-2.42-.02-.82-.12-1.6-.43-2.5-.68.85-.21,1.65-.29,2.41.04.76.32,1.43.19,2.11-.19.55-.3,1.11-.6,1.67-.9.79-.42,1.62-.44,2.46-.25,2.04.46,2.78.15,3.61-1.76.53-1.21,1.31-2.17,2.3-2.99,1.01-.84,2.27-1.39,3.52-1.02,1.37.4,2.61.09,3.86-.18,1.75-.38,3.45-.25,5.14.23,1.82.51,2.87,1.9,3.61,3.52.43.95.81,1.97.64,3.06-.16,1.02.22,1.87.74,2.69.28.43.55.87.86,1.34-.46.34-.84.61-1.04.76-.44,1.54-.79,2.9-1.24,4.22-.09.26-.56.53-.87.54-.67.03-1.36-.06-2.03-.18-1.29-.25-1.72-.04-2.15,1.19-.57,1.63-.5,3.12.94,4.31.37.3.69.66,1.03.99,1.4,1.32,2.19,2.97,2.46,4.85.15,1.02.49,1.93,1.01,2.8.73,1.22,1.38,2.46,1.73,3.88.27,1.11.83,2.15,1.3,3.33.28-.2.54-.35.75-.56,1.94-2.01,3.23-4.42,4.08-7.07.1-.3.09-.63.1-.95.08-1.85.15-3.7.22-5.44.51-.57,1.04-.72,1.64-.74.51-.02,1.03-.07,1.6-.12,1.19.8,2.25,1.76,2.7,3.28.26.88.29,1.63-.32,2.38-.43.53-.69,1.25-1.2,1.66-1.56,1.27-1.9,3.1-2.44,4.86-.51,1.66-1,3.32-1.46,4.99-.59,2.14-1.74,3.95-3.11,5.65-.86,1.07-1.66,1.31-2.88.65-.82-.45-1.62-1.02-2.27-1.68-1.06-1.08-2-2.29-3.08-3.55-1.01,2.82-1.92,5.51-2.17,8.42-.26,2.99-.71,5.97-1.68,8.83-.28.84-.26,1.51.41,2.17.67.67,1.22,1.46,1.88,2.15,3.91,4.11,7.52,8.45,10.76,13.13,1.26,1.82,2.65,3.57,4.09,5.25.86,1.01,1.21,2.07,1.11,3.35-.2,2.65.41,5.12,1.53,7.52.53,1.14.93,2.35,1.32,3.55,1.07,3.25,2.08,6.52,3.17,9.76.65,1.92,1.63,3.68,3.09,5.11.36.35.86.55,1.3.8.36.2.74.37,1.11.57,1.22.65,2.46,1.19,3.9,1.07.31-.03.66-.06.95.05,1.49.53,2.89.16,4.3-.35.39-.14.8-.27,1.21-.33.64-.1,1.28-.1,1.69.56.4.65.32,1.31.05,1.97-.04.1-.12.17-.18.26-1.6,2.23-3.64,3.75-6.39,4.28-1.33.26-2.73.15-3.98.84-.59.33-1.27.51-1.86.85-1.34.78-2.83,1.1-4.32,1.4-1.11.22-1.76-.18-2.15-1.32-.27-.79-.46-1.62-.59-2.45-.89-5.65-3.04-10.72-6.64-15.18-1.95-2.42-3.81-4.93-4.61-8.05-.44-1.69-.67-3.41-.85-5.14-.06-.63-.19-1.25-.24-1.88-.15-2.19-1.44-3.57-3.22-4.58-1.14-.65-2.29-1.3-3.46-1.9-3.63-1.85-7.02-4.06-10.11-6.74-.15-.13-.34-.23-.55-.37-.21.22-.42.39-.56.6-2.57,4.01-5.92,7.33-9.3,10.61-.76.74-1.62,1.37-2.36,2.13-1,1.02-1.96,2.08-2.88,3.17-.89,1.06-1.99,1.52-3.34,1.44-1.57-.1-3.14-.28-4.72-.32-2.21-.05-4.42.07-6.63.25-2.68.22-5.39.03-8.09.11-3.52.11-7,.52-10.41,1.47-.81.22-1.41.5-1.76,1.34-.29.7-.75.9-1.41.55-.75-.39-1.32-.17-1.93.16-1.01.56-2.05,1.1-3,1.76-1.41.97-2.46,2.29-3.26,3.81-.25.47-.5.93-.77,1.39-.58.99-2,.96-2.58-.14-.17-.32-.33-.69-.35-1.04-.22-2.79.33-5.38,2.17-7.56,1.26-1.48,2.09-3.14,2.57-5.02.3-1.16.74-2.31,1.25-3.4.65-1.39,1.43-1.74,3.14-1.14,1.28.45,2.58.98,3.72,1.71,1.68,1.08,3.38.85,5.15.52,2.8-.52,5.44-1.52,8.05-2.63,1.06-.45,2.13-.9,3.23-1.23.9-.27,1.84-.41,2.78-.49,2.55-.24,5.03.22,7.5.78.1.02.19.11.29.12,2.13.22,2.31.34,3.59-1.52.59-.86,1.03-1.85,1.39-2.83,1.01-2.74,2.43-5.25,3.91-7.76,1.04-1.76,1.81-3.69,2.72-5.53.25-.51.22-.96.08-1.52-1.01-3.92.13-7.39,2.34-10.61.63-.92,1.35-1.77,1.96-2.7.37-.57.6-1.23.91-1.88ZM58.34,45.01c1.37-3.27.75-13.23-1.13-16.79-1.46.48-2.96.94-4.43,1.45-1.45.51-3.07.34-4.47,1.01.34.95.63,1.79.93,2.62.44,1.19.82,2.4,1.34,3.54,1.13,2.5,3.02,4.44,4.8,6.47.23.26.6.42.91.6.68.38,1.36.73,2.04,1.09Z"/>
  <path d="M252.43,3.83c1.07-1.86,2.51-3.04,4.46-3.48,2.85-.65,5.58-.44,8.16,1.14,1.38.84,1.83,2.11,1.96,3.58.05.53.09,1.07.02,1.59-.16,1.14.24,2.06.92,2.93.39.49.7,1.04,1.09,1.63-.29.25-.5.46-.73.65-.36.3-.71.5-.54,1.16.12.46-.19,1.05-.37,1.56-.17.49-.44.94-.62,1.42-.31.84-.6,1.11-1.48,1.08-.46-.01-.92-.17-1.38-.26-1.25-.25-2.06.08-2.6,1.25-.84,1.81-1.02,3.74.78,5.34,1.43,1.28,1.97,3,2.31,4.76.24,1.25.75,2.28,1.46,3.28.46.64.83,1.35,1.19,2.05.16.32.31.72.26,1.05-.21,1.38.28,2.6.75,3.84.13.34.26.67.46,1.17.85-.77,1.7-1.41,2.25-2.31.63-1.03,1.18-2.12,1.73-3.2.33-.66.31-1.37.3-2.12-.03-1.42.14-2.84.28-4.26.05-.51,1.24-1.22,1.87-1.16.57.05,1.14.15,1.74.23.93.81,1.7,1.76,2.19,2.98.3.76.22,1.35-.21,1.92-.57.76-1.12,1.56-1.83,2.18-.71.63-1.15,1.38-1.46,2.22-.4,1.08-.76,2.19-1.04,3.31-.68,2.73-1.94,5.12-3.82,7.2-1.23,1.36-2.23,1.46-3.65.24-.88-.76-1.68-1.61-2.63-2.53-1.02,4.44-1.82,8.92-3.51,13.21,1.05.95,2.08,1.92,3.14,2.85,2.02,1.78,4.11,3.49,5.86,5.56,1.51,1.78,3.23,3.37,4.71,5.17,1.89,2.28,3.63,4.68,5.46,7.01.63.8.88,1.68.79,2.67-.13,1.58-.2,3.18-.45,4.74-.38,2.33-.18,4.67-.13,7,.04,1.79.31,3.58.55,5.36.59,4.41,1.78,8.65,3.71,12.72.85-.13,1.68-.45,2.37.28.56.58,1.17,1.11.84,2.02,1.39.79,2.63,1.51,4.12,1.82,1.53.31,3,.97,4.62.8.05,0,.11,0,.16,0,.64.11,1.31.26,1.58.9.29.69.06,1.37-.42,1.92-1.25,1.43-2.8,2.41-4.62,2.89-.85.22-1.77.38-2.64.33-2.87-.17-5.65.21-8.39,1.06-.83.26-1.77.26-2.66.21-1.39-.09-1.87-.86-1.72-2.23.07-.65.01-1.38-.21-2-.75-2.11-.4-4.09.25-6.15.28-.9.16-2-.03-2.96-.48-2.43-1.39-4.74-2.35-7.03-.98-2.33-2.02-4.64-2.96-6.99-.99-2.49-1.43-5.05-.93-7.74.26-1.4.35-2.83.57-4.23.1-.68-.21-1.15-.68-1.49-1.01-.76-2.02-1.54-3.11-2.16-1.92-1.1-3.9-2.07-5.85-3.11-1.3-.69-2.6-1.39-3.88-2.13-1.23-.71-2.43-1.46-3.68-2.23-1.02,1.54-1.98,3.06-3,4.53-1.94,2.78-3.99,5.49-6.44,7.83-1.87,1.79-3.8,3.54-5.8,5.18-1.19.98-2.59,1.31-4.25,1.08-5.42-.74-10.65-2.23-15.88-3.74-3.14-.9-6.29-1.71-9.6-1.5-.72.05-1.36.09-1.76.79-.03.04-.07.08-.11.11-1.21.85-1.32,1.13-2.44-.16-1.49.46-2.99.88-4.47,1.38-1.55.52-2.74,1.56-3.72,2.85-.32.42-.61.88-1,1.21-.78.67-1.52.45-2.02-.48-.46-.86-.32-1.79-.2-2.66.33-2.33,1.36-4.35,3.24-5.8,1.34-1.04,2.18-2.41,3-3.83.63-1.1,1.23-2.22,1.95-3.25.84-1.2,1.94-1.36,3.15-.59,1.02.65,2.07,1.27,3.05,1.98.51.36,1.12.8,1.32,1.34.47,1.31,1.55,1.5,2.62,1.68,2.77.46,5.57.41,8.37.31,1.26-.04,2.52-.2,3.78-.25,3.12-.13,6.05.55,8.74,2.18.22.13.47.21.74.33,1.34-1.29,1.96-2.99,2.72-4.6,1.34-2.81,2.63-5.64,3.93-8.47.75-1.63,1.47-3.27,2.18-4.85-.19-.37-.32-.66-.48-.93-.97-1.75-.86-3.53-.27-5.37.75-2.36,1.95-4.44,3.63-6.24.46-.49.86-1.03,1.23-1.68-.83.37-1.56.04-2.32-.05-.83-.1-1.22-.52-1.49-1.2-.06-.15-.17-.28-.2-.43-.45-2.22-1.83-3.9-3.2-5.57-1.68-2.04-3.46-4.01-5.07-6.11-1.25-1.63-2.36-3.38-3.41-5.15-.83-1.4-.52-2.19.87-3.19,3.19-2.28,6.55-4.19,10.32-5.34.59-.18,1.13-.56,1.64-.93,1.93-1.4,3.99-2.54,6.32-3.13.61-.15,1.17-.46,1.78-.61.85-.22,1.43-.82,1.72-1.53.64-1.57.89-3.18-.47-4.58-.04-.04-.07-.08-.11-.12-1.61-1.54-1.94-3.42-1.36-5.59h-1.1c-.02.45-.06.91-.07,1.37-.01,1.49.03,2.98-.03,4.47-.06,1.45-.7,2.62-2.09,3.35.19-.34.39-.68.62-1.09-.21.01-.33-.01-.37.03-1.04,1.08-2.17,2.01-3.57,2.57-1.75-.48-3.51-.89-5.38.03.21-.79.85-1.1,1.46-1.21,1.6-.28,2.58-1.51,3.86-2.34-1.08.28-2.1.04-3.14-.13-.82-.13-1.71,0-2.55.16-1.52.28-2.89-.16-4.32-.71,1.85.09,3.09-.99,4.36-2.07.54-.46,1.29-.67,1.96-.94.48-.19,1-.28,1.57-.43-1.02-.37-1.99-.64-2.88-1.07-1.14-.55-2.24-.45-3.35,0-.42.17-.82.38-1.26.46,1.38-1.22,2.89-1.96,4.78-1.27.49.18.97.42,1.48.53.56.12,1.14.21,1.7.17.67-.05,1.09-.61,1.11-1.31.02-.48-.05-.96,0-1.44.2-2.19,1.94-3.39,3.39-3.33.84.03,1.67.01,2.47.38.55.25,1.19.31,1.78.45ZM238.49,31.76c-.05.28-.09.39-.08.49.02.21.03.43.09.63,1.14,3.86,3.06,7.26,5.83,10.17.68.71,1.41,1.27,2.35,1.49.92.21,1.63.67,2.08,1.55,1.24-5.11.48-13.14-1.61-17.09-1.42.5-2.84,1.03-4.28,1.49-1.47.47-2.97.87-4.38,1.27Z"/>
  <path d="M341.68,65.12c-.96-1.5-1.46-3.08-.73-4.81.49-1.16.94-2.37,1.64-3.4.89-1.3,2.01-2.45,3.11-3.75-.23-.18-.54-.41-.84-.66-.75-.6-1.01-1.5-1.23-2.35-.23-.87-.65-1.54-1.26-2.15-1.2-1.2-2.35-2.46-3.61-3.6-1.7-1.55-3.03-3.38-4.26-5.31-.74-1.16-1.51-2.29-2.26-3.44-.8-1.23-.74-2.32.36-3.24,3.08-2.57,6.28-4.96,10.06-6.47,1.2-.48,2.24-1.36,3.39-1.99,1.33-.73,2.7-1.4,4.06-2.1.37-.19.81-.31,1.11-.58.75-.69,1.59-1.19,2.49-1.66,1.35-.7,1.98-3.2,1.18-4.49-.1-.17-.3-.28-.47-.41-1.48-1.12-2.3-2.58-2.31-4.47,0-.14-.09-.29-.17-.49-.83.22-1.07.88-1.13,1.54-.07.73.05,1.47.12,2.21.03.31.1.63.22.92,1.15,2.66-1.28,6.12-4.68,6.16-.95.01-1.91.03-2.86-.03-1.18-.08-2.18.2-2.97,1.14-.45.54-1.05.85-1.88.75.76-.57,1.54-1,1.58-2.17-1.59,1.98-2.07,2.16-4.4,1.75,1.48-.19,2.81-.58,3.74-2.07-.66.11-1.2.21-1.73.3-.01-.05-.03-.09-.04-.14.56-.31,1.12-.62,1.73-.96-1.42.05-2.77.15-4.11.13-1.34-.02-2.75.43-4.01-.46.7-.18,1.38-.35,2.28-.57-1.01-.42-1.97-.3-2.8-1.14,1.57.14,2.86-.19,4.14-.66,1.29-.47,2.29-1.2,2.97-2.45.49-.92,1.18-1.73,1.81-2.64-.53-.15-.86.31-1.09.63-1.27,1.76-2.95,1.78-4.79,1.26-.41-.12-.81-.28-1.15-.66.24.05.48.09.71.16,1.33.41,2.5.11,3.48-.86.41-.4.74-.89,1.09-1.35.87-1.17,1.91-1.88,3.47-1.83,1.19.04,2.4-.2,3.82-.34-.36-.25-.55-.43-.78-.53-.33-.15-.69-.25-1.04-.35-.51-.15-1-.29-1.01-1,0-.14-.4-.28-.62-.43.4-.28.78-.2,1.15.03,2.26,1.42,4.79,1.48,7.32,1.37.9-.04,1.75-.26,2.08-1.5.67-2.55,2.66-3.79,5.08-4.14,1.97-.28,4-.33,5.97.26,2.31.69,3.81,2.63,3.75,4.89,0,.05.01.11,0,.16-.29,1.77.01,3.36,1.32,4.68.13.14.17.37.28.61-.4.31-.77.6-1.24.96.27.59.13,1.26-.15,1.83-.31.62-.61,1.19-.56,1.92.03.56-.37.89-.91.89-.68,0-1.39,0-2.03-.19-1.34-.41-2.72.32-2.78,2.1-.01.37,0,.75,0,1.12-.03,1.04.37,1.86,1.25,2.41,1.32.82,2.17,2.01,2.53,3.51.47,1.97,1.49,3.57,2.87,5.03.68.71,1.19,1.61,1.65,2.49.74,1.39,1.38,2.84,2.1,4.37.85-.63,1.38-1.46,1.8-2.35.81-1.73,1.18-3.59,1.44-5.48.05-.37.12-.78,0-1.11-.57-1.58.11-3.14.02-4.71-.04-.73.35-1.13.96-1.26,1.01-.22,2.05-.47,2.89.47.59.66,1.2,1.3,1.78,1.97.64.74.58,1.56.14,2.36-.33.6-.69,1.19-1.13,1.72-1.1,1.31-1.5,2.88-1.79,4.5-.24,1.35-.44,2.7-.62,4.06-.35,2.73-1.52,5.14-2.75,7.54-.39.76-.98.94-1.85.67-1.43-.44-2.72-1.12-3.75-2.24-1.1-1.19-2.21-2.38-3.37-3.62-.94,1.5-1.33,3.15-1.61,4.79-.49,2.86-1.18,5.67-1.96,8.45-.21.76-.55,1.48-.88,2.36.58.51,1.19,1.1,1.84,1.61,2.91,2.29,5.8,4.57,8.54,7.07,2.12,1.93,4.19,3.89,5.99,6.13,1.09,1.36,2.17,2.74,3.11,4.21.8,1.23.68,2.64.16,3.97-.7,1.76-1.58,3.46-2.2,5.25-.79,2.28-1.43,4.62-2.07,6.96-1.06,3.85-2.08,7.72-3.11,11.59-.47,1.75-.68,3.53-.51,5.44.32.15.68.32,1.16.54-.13,1.65.47,3.14,1.23,4.6.07.13.07.31.09.46.25,1.68,1.15,2.77,2.79,3.28.53.16,1.07.49,1.46.88.66.67.43,1.55-.44,1.91-1.21.5-2.5.49-3.74.29-1.89-.31-3.66-1.06-4.96-2.53-1.47-1.65-3.22-2.87-5.15-3.89-.6-.32-1.14-.77-1.63-1.24-1.03-.97-1.02-1.81-.12-2.88,1.09-1.29,2.21-2.56,3.2-3.93.48-.66.74-1.51,1-2.31.56-1.76.93-3.58.95-5.44.02-2.18.11-4.37-.03-6.55-.24-3.78.74-7.22,2.47-10.51.3-.56.58-1.13.91-1.76-.75-1.19-1.94-1.97-3.2-2.6-1.45-.73-2.98-1.31-4.47-1.96-3.28-1.42-6.55-2.84-9.94-4.31-.59.92-1.25,1.99-1.96,3.02-1.68,2.44-3.38,4.87-5.47,6.99-2.08,2.11-4.18,4.2-6.25,6.32-.78.79-1.46,1.68-2.28,2.42-.53.48-1.19.9-1.86,1.13-.73.25-1.55.37-2.32.33-2.67-.15-5.21.47-7.75,1.15-3.04.82-6.12,1.35-9.23,1.82-3.15.48-6.31,1.04-9.21,2.49-.86.43-1.67.86-2.08,1.84-.2.48-.62.85-1.28.71-.23-.05-.55.03-.73.18-1.17.9-2.33,1.81-3.45,2.78-1.33,1.15-1.97,2.72-2.32,4.41-.22,1.04-.2,1.04-1.32,1.57-1.26-.68-1.74-1.85-1.88-3.23-.23-2.38.06-4.64,1.29-6.75.8-1.38,1.15-2.92,1.3-4.52.1-1.15.33-2.31.68-3.4.34-1.08.9-1.96,2.66-1.31,1.22.45,2.52.68,3.78,1.01.3.08.62.13.89.28.99.56,2.02.49,3.07.25,3.16-.72,6.03-2.11,8.81-3.74,2.08-1.23,4.15-2.46,6.58-2.94,1.71-.34,3.42-.55,5.16-.51,3.44.09,3.08-.14,4.79-2.49,1.99-2.74,3.33-5.87,4.75-8.94,1.06-2.29,1.99-4.65,3-7.01ZM349.15,47.92c.49-1,.72-2.07.73-3.19.01-2.07.05-4.15,0-6.22-.02-.99-.12-2.01-.36-2.97-.4-1.56-1.07-3.03-1.89-4.51-1.48.68-2.85,1.34-4.24,1.94-1.42.61-3.05.74-4.24,1.76.91,2.85,1.97,5.54,3.71,7.91,1.65,2.23,3.35,4.38,6.29,5.28Z"/>
  <path d="M144.3,11.18c-2.28-.37-4.47-.41-6.04,1.89.1-1.14.75-1.83,2.43-2.68-.92-.72-1.82.18-2.68-.05,1.06-.57,2.04-.85,3.15-.54,1.86.52,3.68.2,5.47-.14,1.16-.22,2.3-.27,3.45-.21.93.05,1.78-.05,2.51-.65.11-.48.24-.94.32-1.4.46-2.66,2.15-4.15,4.63-4.85,2.06-.58,4.12-.6,6.22-.08,1.78.44,2.76,1.67,3.42,3.22.42,1.01.89,2.04.78,3.19-.08.84.56,1.34.97,1.93.36.51.83.94,1.33,1.5-.43.48-.81.89-1.28,1.41.05.26.19.61.18.95-.01.35-.19.7-.27,1.05-.12.5-.23,1.01-.32,1.52-.16.85-.6,1.35-1.45,1.4-.57.04-1.15-.07-1.73-.13-1.12-.12-1.79.29-2.21,1.33-.48,1.18-.43,2.4-.24,3.61.13.82.72,1.44,1.39,1.86,2.07,1.3,3.09,3.25,3.62,5.55.25,1.08.55,2.14,1.11,3.11.79,1.38.99,2.86.59,4.56.56-.15,1.09-.19,1.52-.42,1.3-.69,2.56-1.45,3.84-2.19.47-.27.63-.69.56-1.21-.07-.52-.15-1.04-.24-1.56-.2-1.14.17-1.95,1.18-2.52,1.97-1.12,2.45-1.05,4.11.63.26.26.55.51.77.8.74.98.71,1.72-.03,2.71-1.24,1.67-2.68,3.08-4.43,4.25-1.75,1.17-3.3,2.63-4.98,3.92-.96.74-1.96,1.44-3.02,2.02-.78.42-1.03.96-.97,1.78.05.69-.03,1.38,0,2.08.12,2.83-.29,5.61-1.05,8.31-.59,2.09-.55,4.19-.48,6.3.03.84.32,1.63.82,2.36,1.26,1.82,2.46,3.69,3.71,5.52,1.61,2.36,2.92,4.9,4.15,7.47,1.03,2.16,2.28,4.18,3.8,6.02.99,1.2,1.5,2.55,1.36,4.09-.23,2.62.64,5.01,1.48,7.39,1.43,4.01,2.89,8.02,4.4,12,.62,1.64,1.59,3.11,2.72,4.44.46.55.88,1.11,1.73,1.28.56.11,1.02.7,1.51,1.11.91.75,1.87,1.32,3.1,1.4.61.04,1.21.32,1.8.53,1.02.38,2.02.42,3.07.04.67-.24,1.41-.29,2.05-.41.93,1.32.99,1.83.13,2.78-2.1,2.31-4.59,3.91-7.86,3.68-1.72-.12-3.35.2-4.95.74-1.26.43-2.54.65-3.87.58-1.33-.07-1.81-.55-1.7-1.9.09-1.06-.01-2.08-.25-3.11-.13-.56-.25-1.24-.05-1.73.56-1.35.02-2.51-.45-3.65-.74-1.82-1.84-3.44-2.98-5.04-1.6-2.23-3.31-4.38-4.42-6.94-.86-1.99-1.45-4.06-1.74-6.21-.46-3.41-1.68-6.44-4.24-8.79-1.56-1.43-3.17-2.8-4.8-4.15-2.08-1.72-4.09-3.51-5.86-5.55-.14-.16-.25-.35-.44-.62-3.28,5.01-7.3,9.12-11.44,13.13-.5.48-1.01.95-1.43,1.49-1,1.32-2.34,1.33-3.72,1-.65-.15-1.29-.48-1.84-.87-2.94-2.05-5.84-4.17-8.78-6.21-2.9-2.01-5.7-4.18-8.89-5.73-.8-.39-1.61-.8-2.45-1.08-.74-.25-1.53-.47-2.29-.49-.76-.01-1.52.26-2.35.42-.31-.29-.64-.62-1.05-1-.7.09-1.43.2-2.15.27-.47.05-.99.16-1.41.02-1.49-.51-2.65.26-3.85.89-.37.19-.7.47-1.03.74-.84.68-1.77.91-2.84.65-.58-.57-.64-1.21-.38-2.01.84-2.59,2.74-4.21,4.91-5.59.35-.23.74-.41,1.13-.57,1.14-.48,2.08-1.22,2.94-2.1.92-.94,1.92-1.81,2.92-2.68.27-.24.63-.38.95-.55.59-.32,1.14-.25,1.57.26,1.06,1.25,2.06,2.55,3.13,3.79.49.56.23,1.07.01,1.6,1.22,1.51,2.92,2.16,4.59,2.75,2.07.73,4.19,1.32,6.33,1.83,3.48.84,6.38,2.64,8.9,5.15.33.33.66.65.99.96,2.05-2.05,2.93-4.68,3.92-7.23.71-1.83,1.49-3.61,2.48-5.3.34-.59.53-1.26.82-1.88.38-.82.38-1.63.08-2.47-.57-1.58-.54-3.23-.44-4.87.07-1.19.6-2.23,1.22-3.22.78-1.27,1.69-2.44,2.8-3.43.24-.21.53-.35.87-.57-1.2-.67-1.9-1.43-2.41-2.38-.67-1.24-1.63-2.18-2.82-2.93-2.31-1.47-4.57-3.01-6.85-4.54-.43-.29-.84-.63-1.23-.99-1.43-1.34-2.85-2.69-4.27-4.04-.8-.76-.88-1.62-.2-2.38,1.91-2.13,3.93-4.14,6.31-5.75,1.18-.79,2.45-1.44,3.65-2.2.88-.56,1.72-1.2,2.56-1.83.15-.11.23-.32.22-.61-.94.6-1.87,1.2-2.81,1.8l-.17-.13c.19-.24.39-.48.56-.73.47-.7,1.04-1.37.94-2.29-.04-.34-.21-.66-.43-.98-.25.91-.1,1.88-.81,2.63-.78.82-1.67,1.44-2.71,1.88-.57.24-1.09.33-1.69.11,2.58-1.05,3.19-2.94,1.56-5.03-.05,1.44-.01,2.88-2.12,3.38.76-.92,1.59-1.57,1.39-2.54-.2-.92-.62-1.78-.98-2.76-1.32.41-2.52,1.24-3.91.68-.77-.31-1.43-.77-2.1-1.64,1.23.41,2.24.69,3.16-.11-.77-.19-1.59-.27-2.31-.6-.77-.36-1.26-1.06-1.45-2.33.37.51.52.75.7.96.86,1.01,2.03,1.16,3.08.37.88-.66,1.34-1.6,1.66-2.64.36-1.16.74-2.3,1.62-3.22.92-.96,2.05-1.45,3.28-1.82ZM149.98,33.47c-2.16.87-4.2,1.67-6.22,2.53-.55.23-1.23.38-1.45,1.07,2.39,5.06,6.1,8.71,11.2,11.04.59-4.42-1.12-9.14-3.54-14.63ZM149.29,17.54c-.27.63-.11,1.23.24,1.78.99,1.58.89,3.2.19,4.85-.11.26-.13.56-.22.99,1.77-.99,3.27-1.99,4.65-3.26,1.59-1.46,2.31-3.09,2.01-5.2-2.35-1.62-2.54-2.11-3.3-5.11-.48.43-1,.74-1.29,1.2-.54.83-1.05,1.72-1.36,2.65-.23.68-.13,1.47.45,2.08.36.38.67.81,1,1.22.78.97.85,2.19-.1,3.04.21-1.54.14-1.72-1.03-2.88-.43-.43-.83-.9-1.25-1.36Z"/>
  <path d="M388.77,106.57c-.03.76-.01,1.37-.09,1.96-.03.19-.34.51-.49.49-.7-.1-.94.43-1.16.86-.58,1.12-1.07,2.28-1.6,3.43-.4.86-.38,1.69-.04,2.6.27.72.34,1.54.36,2.32.02.84-.38,1.2-1.19,1.07-.54-.09-1.13-.32-1.55-.68-1.67-1.43-2.71-3.22-2.71-5.5,0-.48-.05-.96,0-1.44.21-2.09-.26-4.1-.72-6.11-.25-1.07-.42-2.18-.49-3.28-.07-.97.19-1.32,1.21-1.53,1.78-.37,3.56-.94,5.42-.36.31.1.72-.05,1.06-.15,1.75-.52,3.28-1.42,4.57-2.72,1.39-1.39,2.83-2.73,4.14-4.18,1.94-2.15,4.42-3.38,7.04-4.4,1.07-.42,2.16-.82,3.27-1.11,1.29-.33,2.06-1.11,2.63-2.29,1.52-3.19,2.86-6.46,3.96-9.82.78-2.4,1.42-4.84,2.13-7.27.19-.64.19-1.27-.21-1.82-1-1.4-.53-2.64.26-3.95,1.81-3,3.82-5.83,6.41-8.4-1.03-.11-1.43-.79-1.54-1.58-.3-2.09-1.52-3.68-2.75-5.25-.95-1.21-2.04-2.3-3.05-3.45-1.92-2.19-3.73-4.46-5.15-7.02-.2-.37-.43-.75-.5-1.15-.18-.99.02-1.85.82-2.59,2.71-2.51,5.74-4.45,9.25-5.63,1.25-.42,2.5-.84,3.41-1.89.03-.04.08-.08.12-.1,2.01-.93,3.69-2.44,5.64-3.45,1.54-.8,1.78-2.12,1.95-3.53.04-.38-.25-1.01-.58-1.19-1.54-.88-2.29-2.25-2.64-3.87-.5-.07-.86.02-.87.52-.01.69.02,1.38.07,2.07.06.88-.13,1.65-.68,2.38-.54.71-.95,1.51-1.44,2.3-.12-.15-.27-.33-.52-.64-.57,1.42-1.25,2.73-2.65,3.34-1.01.44-2.09.69-3.52.45,1.64-.59,3.2-.88,3.73-2.78-.95.6-1.74,1.21-2.8,1.3-1.09.09-2.15.47-3.24.6-1.04.12-2.11.15-3.25-.52,2.76.04,4.31-1.49,5.38-3.73-1.18.81-2.34,1.54-3.87,1.46-1.49-.08-2.75-.56-3.9-1.5,1.14.2,2.24.79,3.41.43,1.15-.35,2.33-.69,3.22-1.81-1.28-.03-2.43-.18-2.59-1.85,1.4.61,2.29-.25,3.2-.99.82-.67,1.55-1.47,2.44-2.01,1.65-1.01,3.49-1.52,5.42-1.07.86.2,1.39-.38,2.16-.53.04-.35.11-.71.1-1.07-.04-2.25,1.05-3.9,2.89-4.95,2.58-1.47,5.41-1.74,8.24-.91,1.25.37,2.34,1.15,2.88,2.52.45,1.13,1.01,2.21.89,3.48-.07.75.28,1.32.74,1.86.48.56.94,1.14,1.5,1.81-.42.44-.8.83-1.04,1.08-.27.97-.5,1.76-.71,2.56-.08.3-.12.61-.15.92-.11,1.22-.81,1.77-2.01,1.57-.72-.12-1.43-.22-2.14-.33-1.05,1.55-1.03,3.07-.44,4.62.12.33.41.61.67.86.27.25.58.48.91.62,1.78.78,2.42,2.39,2.98,4.07.43,1.29.88,2.59,1.36,3.87.48,1.28.96,2.51.62,3.96-.25,1.09-.68,1.97-1.53,2.67-.5.41-1,.82-.69,1.73.82-.1,1.7-.14,2.54-.33,1.8-.4,3.5-1.1,5.1-2.04.48-.28.83-.57.94-1.18.11-.61.38-1.2.62-1.79.58-1.42,1.25-1.74,2.83-1.45.38.07.79-.03,1.24-.06.99,1.45,2.17,2.81,1.88,4.95-1.04.59-2.11,1.43-3.33,1.84-1.52.51-2.91,1.21-4.24,2.06-2.49,1.6-5.19,2.77-7.95,3.77-.47.17-.91.31-1.14.76-.87,1.69-1.82,3.34-2.52,5.1-.46,1.15-.64,2.45-.72,3.7-.08,1.1-.47,2.04-.93,3.13,1.29,1.71,2.62,3.47,3.93,5.24,2.2,2.98,4.15,6.12,6.01,9.32,1.48,2.56,2.69,5.27,4.4,7.7.81,1.15.96,2.47.63,3.93-.49,2.16-.66,4.36-.21,6.61.4,2.01.52,4.08.72,6.13.24,2.37.37,4.74.66,7.1.28,2.27.99,4.42,2.16,6.4.11.18.2.42.36.5,1.18.58,1.87,1.7,2.77,2.58.68.67.68.68,1.86.84.14.29.27.63.45.94.5.9,1.19,1.45,2.3,1.34.68-.07,1.37-.02,2.06-.02.67,0,1.24.24,1.63.81.56.83.43,1.51-.45,1.99-.74.41-1.56.56-2.38.77-1.92.49-3.84.6-5.79.53-.78-.03-1.57-.19-2.32-.4-1.57-.43-3.17-.7-4.78-.91-1.23-.16-2.52-.24-3.57-1.16-.13-1.09,0-2.14.38-3.23.68-1.99,1.05-4,.63-6.19-.44-2.28-.84-4.55-1.68-6.72-.53-1.37-1.19-2.7-1.78-4.05-.94-2.16-1.5-4.39-1.38-6.77.07-1.43-.07-2.85.24-4.28.28-1.26-.15-2.44-1.1-3.33-1.23-1.17-2.48-2.3-3.76-3.41-2.47-2.14-5.26-3.9-7.51-6.32-.6-.64-1.35-1.15-2.12-1.79-.34.66-.68,1.25-.96,1.86-1.58,3.44-3.67,6.54-6.18,9.35-1.06,1.18-2.16,2.33-3.22,3.52-.53.59-1.08,1.18-1.5,1.84-1,1.61-2.43,2.65-4.17,3.23-2.6.87-5.08,1.97-7.52,3.21-1.92.98-3.91,1.8-5.87,2.68-2.87,1.3-7.62,4.18-9.18,6.31ZM423.77,48.98c.15-.69.32-1.35.42-2.02.16-1.03.27-2.07.43-3.34-.17-.41-.46-1.08-.75-1.77,1.09-1.14,1.11-2.29.33-3.63-.71-1.22-1.21-2.58-1.81-3.87-.15-.33-.34-.63-.55-1.01-1.09.4-2.12.76-3.13,1.17-1.05.43-2.24.52-3.15,1.25.55,4.49,4.78,11.33,8.2,13.21Z"/>
</svg>