<?xml version="1.0" encoding="UTF-8"?>
<svg id="Calque_1" xmlns="http://www.w3.org/2000/svg" version="1.1" viewBox="0 0 250 62.82">
  <!-- Generator: Adobe Illustrator 30.5.1, SVG Export Plug-In . SVG Version: 2.1.4 Build 3)  -->
  <defs>
    <style>
      .st0 {
        fill: #fff;
      }

      .st1 {
        fill: #00eabd;
      }
    </style>
  </defs>
  <polygon class="st0" points="71.72 57.43 35.56 57.43 37.47 53.88 73.62 53.88 71.72 57.43"/>
  <polygon class="st0" points="48.27 62.38 33.31 62.38 35.21 58.84 50.17 58.84 48.27 62.38"/>
  <path class="st0" d="M74.83,32.87c-1.01-1.47-2.65-2.64-4.9-3.5s-5.2-1.43-8.85-1.7l-7.35-.61c-1.96-.17-3.31-.49-4.03-.97-.73-.48-1.09-1.08-1.09-1.83,0-1.01.62-1.77,1.85-2.28s2.9-.76,5-.76c1.59,0,2.96.15,4.11.46s2.04.74,2.66,1.29c.63.56,1.01,1.21,1.14,1.95h11.97c-.17-2.54-1.11-4.76-2.81-6.67-1.71-1.91-4.01-3.39-6.9-4.44s-6.2-1.57-9.92-1.57-7.2.48-10.05,1.42-5.06,2.34-6.65,4.18c-.68.79-1.21,1.66-1.59,2.61h0l-.1.26c-.04.11-.09.23-.12.34l-1.22,3.33-11.65,26.98-11.69-26.98H0l17.45,38.05h13.44l7.87-17.17c.1.12.19.25.29.37,1.73,2.01,4.11,3.58,7.16,4.69,3.04,1.12,6.58,1.67,10.6,1.67s7.35-.57,10.27-1.7c2.92-1.13,5.2-2.72,6.82-4.77s2.44-4.42,2.44-7.13c0-2.23-.51-4.08-1.52-5.55h0ZM62.47,42.23c-1.3.54-3.12.81-5.45.81-1.69,0-3.16-.18-4.41-.53-1.25-.36-2.24-.86-2.97-1.52-.73-.66-1.16-1.43-1.29-2.31h-6.54l1.87-4.08c2.25.88,5.09,1.44,8.53,1.7l6.7.56c2.2.17,3.67.5,4.41.99s1.12,1.13,1.12,1.9c0,1.12-.65,1.95-1.95,2.49h0Z"/>
  <path class="st1" d="M39.21,9.74c0,5.38-4.36,9.74-9.75,9.74s-9.75-4.36-9.75-9.74S24.08,0,29.47,0s9.75,4.36,9.75,9.74"/>
  <path class="st0" d="M109.68,25.16h1.08l.99-2.35h6.43l.99,2.35h4.34l-5.86-13.08h-5.37l-4.23,9.47h-6.28v-9.47h-4.06v13.08h11.98,0ZM113.12,19.56l1.86-4.41,1.85,4.41h-3.71Z"/>
  <polygon class="st0" points="140.25 35.94 151.26 11.94 143.45 11.94 136.11 28.96 128.73 11.94 120.77 11.94 131.77 35.94 140.25 35.94"/>
  <path class="st0" d="M148.63,23.94c0,2.52.6,4.72,1.81,6.59s2.89,3.34,5.06,4.38c2.16,1.04,4.69,1.57,7.57,1.57s5.4-.52,7.57-1.57,3.85-2.51,5.06-4.38c1.21-1.88,1.81-4.08,1.81-6.59s-.6-4.72-1.81-6.59-2.89-3.34-5.06-4.38-4.69-1.57-7.57-1.57-5.4.52-7.57,1.57c-2.17,1.04-3.85,2.51-5.06,4.38-1.21,1.88-1.81,4.08-1.81,6.59h0ZM156.98,20.79c.55-.89,1.35-1.57,2.38-2.05s2.27-.72,3.7-.72,2.66.24,3.69.72c1.04.48,1.83,1.16,2.38,2.05.55.89.83,1.93.83,3.15s-.28,2.27-.83,3.15c-.55.89-1.35,1.57-2.38,2.05s-2.27.72-3.69.72-2.66-.24-3.7-.72c-1.04-.48-1.83-1.16-2.38-2.05s-.83-1.93-.83-3.15.28-2.27.83-3.15Z"/>
  <rect class="st0" x="178.53" y="11.94" width="7.46" height="24"/>
  <polygon class="st0" points="196.09 35.94 201.74 28.58 207.35 35.94 216.54 35.94 206.42 23.47 215.86 11.94 206.68 11.94 201.9 18.3 197.02 11.94 187.7 11.94 197.23 23.48 187.06 35.94 196.09 35.94"/>
  <path class="st0" d="M105.64,27.34c-.84-.39-1.82-.58-2.94-.58h-4.8v9.33h4.8c1.12,0,2.1-.19,2.94-.58.84-.39,1.5-.93,1.96-1.63s.7-1.52.7-2.46-.24-1.77-.7-2.46-1.12-1.24-1.96-1.62ZM105.09,32.53c-.2.31-.48.56-.85.73-.37.17-.81.25-1.31.25h-2.15v-4.18h2.15c.51,0,.94.09,1.31.25s.65.41.85.72c.2.31.3.68.3,1.11s-.1.79-.3,1.11h0Z"/>
  <polygon class="st0" points="116.94 33.78 111.18 33.78 111.39 32.44 116.51 32.44 116.51 30.4 111.39 30.4 111.18 29.07 116.88 29.07 116.88 26.76 108.1 26.76 108.8 31.43 108.1 36.09 116.94 36.09 116.94 33.78"/>
  <path class="st0" d="M123.64,33.9c-.32.13-.76.2-1.34.2-.42,0-.77-.04-1.08-.13s-.55-.21-.73-.37c-.18-.16-.28-.35-.32-.57h-2.93c.01.65.24,1.22.66,1.71s1.01.88,1.76,1.15c.74.27,1.61.41,2.6.41s1.8-.14,2.52-.42,1.28-.67,1.67-1.17c.4-.5.6-1.09.6-1.75,0-.55-.12-1-.37-1.36-.25-.36-.65-.65-1.2-.86-.55-.21-1.28-.35-2.17-.42l-1.8-.15c-.48-.04-.81-.12-.99-.24-.18-.12-.27-.27-.27-.45,0-.25.15-.43.45-.56.3-.12.71-.19,1.22-.19.39,0,.73.04,1.01.11s.5.18.65.32.25.3.28.48h2.93c-.04-.62-.27-1.17-.69-1.64-.42-.47-.98-.83-1.69-1.09s-1.52-.39-2.43-.39-1.77.12-2.46.35-1.24.57-1.63,1.03-.58,1.01-.58,1.68c0,.82.3,1.47.9,1.96s1.57.78,2.92.88l1.64.14c.54.04.9.12,1.08.24s.27.28.27.47c0,.27-.16.48-.48.61h0Z"/>
  <path class="st1" d="M119.05,48.36c-1.44-.55-3.32-.91-5.65-1.09l-4.7-.39c-1.25-.11-2.11-.31-2.57-.61-.46-.3-.7-.69-.7-1.17,0-.65.39-1.13,1.18-1.46.79-.32,1.85-.49,3.19-.49,1.01,0,1.89.1,2.62.29s1.3.47,1.7.83c.4.36.64.77.73,1.25h7.64c-.11-1.62-.71-3.04-1.8-4.26-1.09-1.22-2.56-2.16-4.41-2.83s-3.96-1-6.33-1-4.6.3-6.41.91c-1.82.61-3.23,1.5-4.24,2.67-1.01,1.18-1.52,2.64-1.52,4.39,0,2.14.78,3.84,2.35,5.1,1.56,1.26,4.1,2.02,7.59,2.28l4.27.36c1.4.11,2.34.32,2.82.63s.71.72.71,1.22c0,.71-.42,1.24-1.25,1.59s-1.99.52-3.48.52c-1.08,0-2.02-.11-2.82-.34s-1.43-.55-1.89-.97c-.46-.42-.74-.91-.83-1.47h-7.64c.04,1.68.61,3.17,1.71,4.45,1.1,1.28,2.62,2.28,4.57,2.99s4.2,1.07,6.77,1.07,4.69-.36,6.56-1.09,3.32-1.74,4.36-3.04,1.55-2.82,1.55-4.55c0-1.43-.33-2.61-.97-3.54-.65-.94-1.69-1.68-3.13-2.23h.01,0Z"/>
  <path class="st1" d="M143.76,39.05c-1.52-.71-3.34-1.07-5.46-1.07h-13.89v24.29h7.55v-7.06h6.35c2.11,0,3.93-.36,5.46-1.07,1.52-.71,2.68-1.72,3.48-3.01.8-1.29,1.2-2.81,1.2-4.53s-.4-3.26-1.2-4.55c-.8-1.28-1.96-2.28-3.48-2.99h0ZM140.03,48.54c-.53.48-1.27.71-2.22.71h-5.86v-5.31h5.86c.95,0,1.69.23,2.22.68.53.45.79,1.11.79,1.98s-.27,1.47-.79,1.94h0Z"/>
  <path class="st1" d="M170.87,39.02c-2.19-1.06-4.75-1.59-7.66-1.59s-5.47.53-7.66,1.59c-2.19,1.06-3.9,2.54-5.12,4.43-1.22,1.9-1.83,4.12-1.83,6.67s.61,4.77,1.83,6.67,2.93,3.38,5.12,4.43c2.19,1.06,4.75,1.59,7.66,1.59s5.47-.53,7.66-1.59,3.9-2.54,5.12-4.43c1.22-1.9,1.83-4.12,1.83-6.67s-.61-4.77-1.83-6.67-2.93-3.38-5.12-4.43ZM169.37,53.32c-.56.89-1.37,1.59-2.41,2.07-1.05.49-2.29.73-3.74.73s-2.69-.24-3.74-.73c-1.05-.49-1.85-1.18-2.41-2.07-.56-.89-.84-1.96-.84-3.19s.28-2.29.84-3.19,1.37-1.59,2.41-2.07c1.05-.49,2.29-.73,3.74-.73s2.69.24,3.74.73c1.05.49,1.85,1.18,2.41,2.07.56.89.84,1.96.84,3.19s-.28,2.29-.84,3.19Z"/>
  <path class="st1" d="M198.4,52.86c1.43-.66,2.54-1.59,3.33-2.78s1.2-2.57,1.2-4.13-.4-2.99-1.2-4.18c-.8-1.19-1.91-2.11-3.33-2.78-1.43-.67-3.08-1-4.96-1h-14.83v24.29h7.55v-8.42h3.01l6,8.42h8.65l-6.58-8.96c.41-.13.8-.28,1.18-.45h0s0,0,0,0ZM186.16,43.42h6.15c.95,0,1.69.22,2.22.65.53.43.79,1.06.79,1.88s-.27,1.45-.79,1.88-1.27.65-2.22.65h-6.15v-5.05h0Z"/>
  <polygon class="st1" points="229.25 37.99 203.7 37.99 203.7 44.69 212.71 44.61 212.71 62.28 220.25 62.28 220.25 44.54 224.07 44.51 229.25 37.99"/>
  <path class="st1" d="M249.04,50.6c-.65-.94-1.69-1.68-3.13-2.23s-3.32-.91-5.65-1.09l-4.7-.39c-1.25-.11-2.11-.31-2.57-.61-.46-.3-.7-.69-.7-1.17,0-.65.39-1.13,1.18-1.46.79-.32,1.85-.49,3.19-.49,1.01,0,1.89.1,2.62.29s1.3.47,1.7.83c.4.36.64.77.73,1.25h7.64c-.11-1.62-.71-3.04-1.8-4.26-1.09-1.22-2.56-2.16-4.41-2.83s-3.96-1-6.33-1-4.6.3-6.41.91l-5.28,6.86c0,2.14.3,4.04,1.86,5.3s4.1,2.02,7.59,2.28l4.27.36c1.4.11,2.34.32,2.82.63s.71.72.71,1.22c0,.71-.42,1.24-1.25,1.59s-1.99.52-3.48.52c-1.08,0-2.02-.11-2.82-.34s-1.43-.55-1.89-.97c-.46-.42-.74-.91-.83-1.47h-7.64c.04,1.68.61,3.17,1.71,4.45s2.62,2.28,4.57,2.99,4.2,1.07,6.77,1.07,4.69-.36,6.56-1.09,3.32-1.74,4.36-3.04,1.55-2.82,1.55-4.55c0-1.43-.33-2.61-.97-3.54h.01,0Z"/>
  <rect class="st0" x="86.7" y="21.61" width=".52" height="32.51"/>
</svg>